<!DOCTYPE svg PUBLIC "-//W3C//DTD SVG 20010904//EN" "http://www.w3.org/TR/2001/REC-SVG-20010904/DTD/svg10.dtd">
<svg version="1.0" xmlns="http://www.w3.org/2000/svg" width="500px" height="500px" viewBox="0 0 5000 5000" preserveAspectRatio="xMidYMid meet">
<g id="layer101" fill="#040404" stroke="none">
<path d="M0 2500 l0 -2500 2500 0 2500 0 0 2500 0 2500 -2500 0 -2500 0 0 -2500z"/>
</g>
<g id="layer102" fill="#406451" stroke="none">
<path d="M0 2500 l0 -2500 2500 0 2500 0 0 2500 0 2500 -2500 0 -2500 0 0 -2500z m3434 811 c57 -36 73 -106 35 -155 -12 -15 -43 -38 -70 -51 -50 -26 -63 -45 -31 -45 9 0 29 6 44 14 26 14 28 13 49 -20 11 -19 18 -41 15 -49 -18 -48 -169 -68 -223 -29 -15 11 -36 37 -47 58 -16 33 -17 41 -5 74 12 31 24 42 77 67 64 30 74 41 46 52 -15 6 -30 2 -85 -21 -12 -5 -23 3 -39 29 -21 35 -22 37 -4 56 44 48 174 59 238 20z m-1780 -52 c9 -39 16 -78 16 -87 0 -36 16 5 30 76 l16 77 76 3 c66 2 77 0 82 -15 5 -16 76 -344 76 -350 0 -2 -31 -3 -69 -3 -79 0 -77 -3 -87 101 -9 98 -19 115 -28 48 -4 -30 -12 -76 -18 -102 l-10 -48 -61 3 -62 3 -13 75 c-18 102 -25 128 -28 110 -2 -8 -8 -54 -14 -102 l-12 -88 -69 0 c-38 0 -69 3 -69 8 0 4 17 87 37 185 l37 177 77 0 77 0 16 -71z m486 46 c0 -22 4 -25 40 -25 36 0 40 3 40 25 0 25 1 25 79 25 l79 0 -33 -112 c-18 -62 -42 -146 -54 -186 l-22 -73 -91 3 -91 3 -47 160 c-26 88 -50 170 -54 183 -7 22 -6 22 73 22 80 0 81 0 81 -25z m432 -37 l3 -63 33 63 32 62 80 0 80 0 -26 -42 c-15 -24 -36 -55 -46 -71 -19 -27 -19 -27 1 -53 29 -37 35 -84 18 -127 -28 -67 -97 -91 -234 -80 l-83 6 0 183 0 184 70 0 69 0 3 -62z m566 10 l-3 -53 -76 3 c-52 3 -79 0 -84 -8 -13 -20 17 -31 79 -28 59 3 60 3 59 -24 -3 -88 5 -80 -70 -77 -53 2 -68 -1 -68 -12 0 -11 17 -14 75 -14 l75 0 3 -52 3 -53 -145 0 -146 0 0 185 0 185 151 0 150 0 -3 -52z m-785 -452 c91 -33 116 -87 117 -248 l0 -118 -70 0 -70 0 0 108 c0 59 -4 113 -9 120 -5 8 -21 12 -37 10 l-29 -3 -3 -117 -3 -118 -69 0 -70 0 0 109 c0 138 5 162 44 206 50 58 125 77 199 51z m431 -15 c89 -55 69 -163 -39 -208 -25 -10 -45 -24 -45 -30 0 -18 41 -16 67 2 20 14 22 13 42 -21 27 -46 27 -51 -11 -74 -125 -76 -293 17 -244 135 12 28 27 41 70 61 63 29 75 41 50 51 -15 6 -29 2 -85 -21 -12 -5 -23 3 -39 29 -21 35 -22 37 -4 56 44 48 174 59 238 20z m-982 -43 l3 -63 43 -3 42 -3 0 65 0 66 70 0 70 0 0 -185 0 -185 -70 0 -70 0 0 66 0 65 -42 -3 -43 -3 -1 -60 -1 -60 -67 -3 -66 -3 0 186 0 185 65 0 64 0 3 -62z m1239 -10 l0 -73 37 73 36 72 79 0 79 0 -28 -47 c-15 -27 -40 -68 -55 -93 l-28 -45 50 -92 50 -93 -79 0 -79 0 -31 68 -30 67 -1 -67 -1 -68 -70 0 -70 0 0 185 0 185 70 0 70 0 1 -72z m-688 -450 l42 -23 3 -72 3 -71 -63 2 -63 1 -3 33 c-4 38 -29 43 -57 12 -35 -38 -10 -110 39 -110 12 0 33 6 48 14 27 14 28 13 59 -36 l33 -50 -25 -19 c-24 -18 -92 -39 -126 -39 -137 0 -232 150 -174 275 49 107 174 143 284 83z m832 -2 c121 -71 117 -256 -7 -326 -61 -35 -155 -35 -216 0 -146 83 -118 298 44 350 45 14 134 2 179 -24z m-1419 -1 c5 -20 12 -25 40 -25 28 0 35 5 40 25 6 24 10 25 80 25 41 0 74 -3 74 -7 0 -5 -23 -88 -51 -185 l-52 -178 -91 0 -91 0 -49 173 c-27 94 -51 178 -54 185 -3 9 15 12 72 12 72 0 76 -1 82 -25z m844 -37 l1 -63 32 60 32 60 78 3 c42 2 77 0 77 -4 0 -4 -18 -36 -40 -71 l-41 -64 21 -26 c28 -36 28 -120 -1 -156 -32 -41 -106 -59 -211 -51 l-88 7 0 183 0 184 70 0 70 0 0 -62z"/>
<path d="M2164 3168 c3 -13 6 -34 6 -48 1 -31 14 -10 25 38 6 28 4 32 -15 32 -18 0 -21 -4 -16 -22z"/>
<path d="M2576 3113 c-12 -12 -6 -63 7 -63 17 0 37 20 37 37 0 14 -34 35 -44 26z"/>
<path d="M1791 2173 c1 -16 4 -39 8 -53 7 -23 9 -21 18 20 6 31 6 47 -1 52 -20 14 -26 8 -25 -19z"/>
<path d="M2610 2084 c0 -37 18 -45 40 -19 16 19 7 41 -19 48 -18 4 -21 1 -21 -29z"/>
</g>
<g id="layer103" fill="#649c7d" stroke="none">
<path d="M0 2500 l0 -2500 2500 0 2500 0 0 2500 0 2500 -2500 0 -2500 0 0 -2500z m2041 1880 c5 0 9 -9 9 -21 0 -13 -10 -23 -30 -31 -37 -13 -34 -34 5 -31 20 2 25 -1 17 -9 -17 -17 -62 -1 -62 22 0 11 6 20 13 20 7 0 22 7 33 15 16 12 17 16 5 24 -9 5 -24 6 -38 0 -13 -5 -23 -5 -23 1 0 10 30 19 48 14 8 -2 18 -4 23 -4z m167 -6 c26 -18 28 -50 5 -76 -32 -35 -93 -10 -93 38 0 22 33 54 55 54 6 0 21 -7 33 -16z m173 -1 c13 -15 12 -15 -8 -5 -28 15 -52 6 -59 -24 -9 -35 13 -57 50 -50 22 4 27 3 16 -4 -22 -14 -41 -12 -62 7 -22 20 -23 51 -1 75 20 22 46 23 64 1z m99 -38 c0 -30 -3 -55 -7 -55 -5 0 -6 25 -5 55 5 71 12 71 12 0z m160 47 c0 -5 -13 -7 -30 -4 -16 2 -31 0 -31 -4 -1 -5 -3 -26 -4 -46 -2 -36 -1 -37 34 -41 l36 -4 -42 -1 -42 -2 0 55 0 55 40 0 c21 0 39 -4 39 -8z m133 -95 c12 -2 0 -4 -28 -4 -27 0 -40 2 -27 4 19 4 22 11 24 56 l2 52 3 -52 c3 -44 7 -52 26 -56z m101 27 c-10 -19 -22 -34 -27 -34 -5 0 1 13 12 29 12 16 22 42 22 58 2 25 2 26 6 4 3 -13 -3 -39 -13 -57z m-251 19 c-7 -2 -19 -2 -25 0 -7 3 -2 5 12 5 14 0 19 -2 13 -5z m307 -47 c0 -6 -7 -2 -15 8 -8 11 -15 25 -15 30 0 6 7 2 15 -8 8 -11 15 -25 15 -30z m-1276 -122 c19 -7 21 -40 4 -50 -8 -5 -9 -2 -4 11 9 23 -12 37 -36 24 -11 -6 -18 -6 -18 0 0 16 29 24 54 15z m140 -24 c15 0 29 7 32 15 4 8 10 15 15 15 10 0 -37 -104 -50 -108 -10 -3 -24 28 -16 36 3 3 5 0 5 -6 0 -21 16 -13 28 13 11 23 10 25 -13 25 -14 0 -25 -6 -25 -12 -1 -15 -29 32 -29 47 0 6 6 2 13 -7 7 -10 25 -18 40 -18z m136 5 c0 -20 5 -25 28 -26 l27 -2 -27 -4 c-19 -3 -28 -10 -28 -23 0 -13 9 -20 28 -23 21 -4 19 -5 -7 -3 -34 1 -34 1 -37 54 -1 28 2 52 7 52 5 0 9 -11 9 -25z m173 18 c-26 -3 -33 -9 -36 -31 -4 -24 -4 -24 -6 6 -1 31 0 32 37 30 36 -1 36 -1 5 -5z m235 -44 l27 -2 -27 -4 c-42 -6 -38 -40 5 -46 31 -4 31 -4 -5 -5 l-38 -2 1 58 c1 31 4 45 6 30 3 -22 10 -28 31 -29z m180 35 c27 -19 28 -55 2 -79 -25 -23 -67 -13 -82 20 -10 22 -8 29 12 50 27 29 38 31 68 9z m109 -6 c-3 -8 -6 -5 -6 6 -1 11 2 17 5 13 3 -3 4 -12 1 -19z m62 0 c-9 -16 -9 -23 0 -26 13 -4 15 -38 3 -46 -5 -3 -8 5 -8 16 1 15 -7 24 -24 29 -14 4 -18 7 -10 8 8 1 21 10 28 21 17 27 26 25 11 -2z m250 13 c9 -6 2 -9 -24 -9 -26 0 -33 3 -24 9 8 5 19 9 24 9 6 0 16 -4 24 -9z m185 -7 c9 -8 16 -23 15 -32 0 -13 -2 -12 -9 4 -11 29 -33 35 -59 18 -11 -8 -21 -11 -21 -5 0 11 29 30 47 31 6 0 19 -7 27 -16z m103 -6 c-3 -8 -6 -5 -6 6 -1 11 2 17 5 13 3 -3 4 -12 1 -19z m61 -3 c-7 -16 -19 -25 -32 -24 l-21 0 21 9 c12 4 24 15 27 24 4 9 9 16 11 16 3 0 0 -11 -6 -25z m-409 -17 c-4 -31 2 -47 21 -53 30 -9 60 12 61 43 0 15 3 21 6 14 10 -25 -7 -62 -32 -68 -44 -11 -96 42 -68 69 10 10 14 8 12 -5z m-1253 -27 c-21 -23 -7 -36 27 -26 17 6 19 5 10 -5 -14 -15 -63 -5 -63 13 0 15 20 37 34 37 5 0 1 -9 -8 -19z m487 12 c-7 -2 -19 -2 -25 0 -7 3 -2 5 12 5 14 0 19 -2 13 -5z m944 -40 c-3 -10 -5 -2 -5 17 0 19 2 27 5 18 2 -10 2 -26 0 -35z m236 5 c-9 -10 -29 -18 -45 -18 -24 0 -28 4 -27 28 2 24 2 24 6 4 6 -33 57 -27 61 7 3 18 6 21 12 10 6 -9 3 -20 -7 -31z m-666 10 c-3 -8 -6 -5 -6 6 -1 11 2 17 5 13 3 -3 4 -12 1 -19z m-560 -5 c-4 -3 -7 0 -7 7 0 7 3 10 7 7 3 -4 3 -10 0 -14z m1070 -15 c-3 -8 -6 -5 -6 6 -1 11 2 17 5 13 3 -3 4 -12 1 -19z m-1019 -5 c-10 -2 -28 -2 -40 0 -13 2 -5 4 17 4 22 1 32 -1 23 -4z m519 0 c-4 -3 -10 -3 -14 0 -3 4 0 7 7 7 7 0 10 -3 7 -7z m30 0 c-4 -3 -10 -3 -14 0 -3 4 0 7 7 7 7 0 10 -3 7 -7z m1070 -125 c-3 -8 -6 -5 -6 6 -1 11 2 17 5 13 3 -3 4 -12 1 -19z m-2524 5 c-22 -3 -33 -10 -33 -20 0 -9 -3 -14 -6 -10 -16 16 7 37 38 35 l33 -1 -32 -4z m171 1 c9 -3 16 -10 16 -15 0 -6 -7 -6 -18 0 -26 14 -52 -5 -52 -39 0 -31 24 -46 55 -34 13 5 16 4 11 -4 -10 -17 -37 -15 -64 4 -31 21 -26 64 8 81 30 15 25 14 44 7z m177 -14 c13 -10 20 -19 15 -20 -5 0 -17 7 -27 16 -21 19 -56 11 -64 -16 -9 -27 12 -60 38 -61 18 -1 19 -2 4 -6 -24 -6 -57 24 -57 53 0 22 33 54 56 54 7 0 22 -9 35 -20z m219 -4 c0 -19 6 -26 28 -29 26 -4 26 -4 -4 -6 -28 -1 -32 3 -36 29 -3 17 -1 30 4 30 4 0 8 -11 8 -24z m156 -16 c7 0 19 9 26 20 7 11 17 20 22 20 4 0 3 -6 -3 -14 -9 -10 -9 -20 0 -40 15 -33 -2 -56 -42 -56 -29 0 -29 1 -28 58 1 31 4 47 6 35 2 -13 11 -23 19 -23z m141 -42 c-2 -18 -4 -6 -4 27 0 33 2 48 4 33 2 -15 2 -42 0 -60z m161 77 c-2 -3 -17 -6 -31 -7 -24 -2 -27 -7 -28 -43 l-2 -40 -6 35 c-10 50 -4 60 37 60 19 0 33 -2 30 -5z m127 -38 c17 24 33 43 38 43 4 0 7 -25 7 -55 0 -30 -3 -55 -8 -55 -4 0 -6 18 -4 40 3 25 0 40 -7 40 -6 0 -11 -4 -11 -8 0 -4 -12 -23 -28 -41 l-27 -33 -1 59 c-2 54 -1 55 5 13 l6 -45 30 42z m203 27 c45 -31 15 -94 -45 -94 l-33 0 0 55 c0 53 1 55 28 55 15 0 38 -7 50 -16z m162 7 c0 -4 -11 -6 -24 -4 -24 5 -25 2 -29 -48 l-3 -54 -2 58 -2 57 30 0 c17 0 30 -4 30 -9z m107 -13 c-3 -8 -6 -5 -6 6 -1 11 2 17 5 13 3 -3 4 -12 1 -19z m253 -23 c7 -24 16 -42 21 -39 5 3 9 1 9 -5 0 -27 -20 -17 -30 16 -7 21 -16 42 -21 48 -11 12 -12 25 0 25 4 0 14 -20 21 -45z m77 -10 c12 -30 17 -55 13 -55 -4 0 -13 20 -20 45 -7 24 -16 42 -21 39 -5 -3 -9 2 -9 10 0 33 18 14 37 -39z m132 25 c21 0 31 5 31 15 0 8 4 15 10 15 12 0 -32 -102 -45 -107 -6 -1 -19 18 -30 44 -27 64 -29 71 -12 51 8 -10 28 -18 46 -18z m128 8 c-3 -8 -6 -5 -6 6 -1 11 2 17 5 13 3 -3 4 -12 1 -19z m64 -2 c-8 -10 -9 -16 -1 -21 16 -10 12 -52 -6 -59 -9 -3 -27 -6 -40 -6 -21 0 -24 4 -22 38 l1 37 4 -33 c4 -29 8 -33 31 -30 19 2 28 10 30 26 3 18 -1 22 -25 23 -25 0 -26 1 -7 9 12 4 24 16 28 26 3 9 9 14 13 11 3 -4 0 -13 -6 -21z m136 17 c-29 -3 -37 -8 -35 -21 2 -9 17 -20 33 -23 l30 -7 -32 -1 c-26 -1 -33 -5 -33 -20 0 -15 8 -21 38 -24 l37 -4 -42 -1 -43 -2 0 55 0 55 43 -2 42 -1 -38 -4z m-572 -55 c-7 -31 -25 -63 -25 -43 0 12 23 75 28 75 2 0 1 -15 -3 -32z m-1378 16 c-3 -3 -12 -4 -19 -1 -8 3 -5 6 6 6 11 1 17 -2 13 -5z m1184 -32 c12 -17 17 -32 12 -32 -6 0 -15 12 -22 28 l-13 27 -24 -30 -25 -30 12 28 c7 15 16 27 21 27 5 0 6 5 2 11 -4 7 -2 10 5 8 7 -3 21 -19 32 -37z m266 16 c-3 -8 -6 -5 -6 6 -1 11 2 17 5 13 3 -3 4 -12 1 -19z m-1900 6 c-3 -3 -12 -4 -19 -1 -8 3 -5 6 6 6 11 1 17 -2 13 -5z m339 -32 c-15 -15 -15 -15 -4 10 7 15 15 23 17 17 2 -6 -4 -18 -13 -27z m657 31 c-7 -2 -19 -2 -25 0 -7 3 -2 5 12 5 14 0 19 -2 13 -5z m-1007 -51 c-16 -2 -32 0 -37 5 -5 5 7 7 29 4 34 -5 35 -6 8 -9z m612 1 c-10 -2 -28 -2 -40 0 -13 2 -5 4 17 4 22 1 32 -1 23 -4z m369 1 c-3 -3 -12 -4 -19 -1 -8 3 -5 6 6 6 11 1 17 -2 13 -5z m40 0 c-3 -3 -12 -4 -19 -1 -8 3 -5 6 6 6 11 1 17 -2 13 -5z m1197 -533 c57 -36 73 -106 35 -155 -12 -15 -43 -38 -70 -51 -50 -26 -63 -45 -31 -45 9 0 29 6 44 14 26 14 28 13 49 -20 11 -19 18 -41 15 -49 -18 -48 -169 -68 -223 -29 -15 11 -36 37 -47 58 -16 33 -17 41 -4 74 11 30 26 44 77 71 93 49 58 68 -45 25 -7 -3 -22 11 -34 31 -21 35 -22 37 -4 56 44 48 174 59 238 20z m-1780 -52 c9 -39 16 -78 16 -87 0 -36 16 5 30 76 l16 77 76 3 c66 2 77 0 82 -15 5 -16 76 -344 76 -350 0 -2 -31 -3 -69 -3 -78 0 -75 -4 -87 90 -10 85 -20 102 -28 52 -3 -24 -11 -65 -17 -93 l-11 -50 -61 3 -61 3 -17 83 c-9 45 -18 85 -21 88 -3 2 -11 -36 -17 -86 l-13 -90 -69 0 c-38 0 -69 3 -69 8 0 4 17 87 37 185 l37 177 77 0 77 0 16 -71z m486 46 c0 -22 4 -25 40 -25 36 0 40 3 40 25 0 25 1 25 79 25 l79 0 -33 -112 c-18 -62 -42 -146 -54 -186 l-22 -73 -91 3 -91 3 -47 160 c-26 88 -50 170 -54 183 -7 22 -6 22 73 22 80 0 81 0 81 -25z m432 -37 l3 -63 33 63 32 62 80 0 80 0 -26 -42 c-15 -24 -36 -55 -46 -71 -19 -27 -19 -27 1 -53 29 -37 35 -84 18 -127 -28 -67 -97 -91 -234 -80 l-83 6 0 183 0 184 70 0 69 0 3 -62z m566 10 l-3 -53 -77 -3 c-43 -2 -78 -7 -78 -12 0 -5 30 -10 67 -12 66 -3 67 -3 66 -30 -3 -86 4 -78 -69 -78 -47 0 -65 -3 -62 -12 3 -8 28 -12 74 -13 l69 0 3 -52 3 -53 -145 0 -146 0 0 185 0 185 151 0 150 0 -3 -52z m-785 -452 c91 -33 116 -87 117 -248 l0 -118 -70 0 -70 0 0 108 c0 59 -4 113 -9 120 -5 8 -21 12 -37 10 l-29 -3 -3 -117 -3 -118 -69 0 -70 0 0 109 c0 138 5 162 44 206 50 58 125 77 199 51z m431 -15 c89 -55 69 -163 -39 -208 -25 -10 -45 -24 -45 -30 0 -18 41 -16 67 2 20 14 22 13 42 -21 27 -46 27 -51 -11 -74 -125 -76 -293 17 -244 134 11 27 28 42 76 66 59 30 71 50 27 50 -12 -1 -33 -7 -47 -15 -35 -20 -36 -19 -60 20 -21 35 -22 37 -4 56 44 48 174 59 238 20z m-982 -43 l3 -63 43 -3 42 -3 0 65 0 66 70 0 70 0 0 -185 0 -185 -70 0 -70 0 0 66 0 65 -42 -3 -43 -3 -1 -60 -1 -60 -67 -3 -66 -3 0 186 0 185 65 0 64 0 3 -62z m1239 -10 l0 -73 37 73 36 72 79 0 79 0 -28 -47 c-15 -27 -40 -68 -55 -93 l-28 -45 50 -92 50 -93 -79 0 -79 0 -31 68 -30 67 -1 -67 -1 -68 -70 0 -70 0 0 185 0 185 70 0 70 0 1 -72z m-688 -450 l42 -23 3 -72 3 -71 -63 2 -63 1 -3 33 c-4 37 -22 42 -52 12 -27 -27 -26 -75 2 -94 28 -20 45 -20 80 -2 27 14 28 13 59 -36 l33 -50 -25 -19 c-24 -18 -92 -39 -126 -39 -137 0 -232 150 -174 275 49 107 174 143 284 83z m832 -2 c121 -71 117 -256 -7 -326 -61 -35 -155 -35 -216 0 -146 83 -118 298 44 350 45 14 134 2 179 -24z m-1419 -1 c5 -20 12 -25 40 -25 28 0 35 5 40 25 6 24 10 25 80 25 41 0 74 -3 74 -7 0 -5 -23 -88 -51 -185 l-52 -178 -91 0 -91 0 -49 173 c-27 94 -51 178 -54 185 -3 9 15 12 72 12 72 0 76 -1 82 -25z m844 -37 l1 -63 32 60 32 60 78 3 c42 2 77 0 77 -4 0 -4 -18 -36 -40 -71 l-41 -64 21 -26 c28 -36 28 -120 -1 -156 -32 -41 -106 -59 -211 -51 l-88 7 0 183 0 184 70 0 70 0 0 -62z"/>
<path d="M2146 4364 c-9 -8 -16 -22 -16 -29 0 -18 27 -45 45 -45 17 0 45 27 45 44 0 15 -32 46 -48 46 -6 0 -18 -7 -26 -16z"/>
<path d="M2459 4139 c-18 -18 -19 -23 -6 -42 17 -26 43 -33 62 -17 19 16 19 45 -1 64 -20 21 -30 20 -55 -5z"/>
<path d="M1920 3875 c0 -23 4 -26 28 -23 19 2 27 9 27 23 0 14 -8 21 -27 23 -24 3 -28 0 -28 -23z"/>
<path d="M2509 3938 c0 -2 -2 -22 -4 -45 -3 -39 -1 -43 20 -43 26 0 55 24 55 45 0 16 -38 45 -57 45 -7 0 -13 -1 -14 -2z"/>
<path d="M3270 3903 c1 -5 7 -19 14 -32 l13 -24 11 32 c10 29 10 31 -14 31 -13 0 -24 -3 -24 -7z"/>
<path d="M2164 3174 c3 -9 6 -25 6 -35 0 -30 17 -14 22 21 4 25 1 30 -15 30 -13 0 -17 -5 -13 -16z"/>
<path d="M2570 3086 c0 -31 12 -39 35 -22 23 16 13 46 -15 46 -15 0 -20 -7 -20 -24z"/>
<path d="M1794 2168 c3 -13 6 -32 7 -43 l0 -20 9 20 c15 34 12 65 -6 65 -12 0 -15 -6 -10 -22z"/>
<path d="M2610 2085 c0 -18 5 -25 19 -25 20 0 31 17 24 38 -3 6 -13 12 -24 12 -14 0 -19 -7 -19 -25z"/>
</g>
<g id="layer104" fill="#93cc3b" stroke="none">
<path d="M0 2500 l0 -2500 2500 0 2500 0 0 2500 0 2500 -2500 0 -2500 0 0 -2500z m2045 1860 c0 -16 -8 -28 -22 -35 -30 -13 -29 -25 2 -25 14 0 25 -5 25 -11 0 -6 -16 -9 -37 -7 -30 2 -38 7 -38 23 0 12 11 25 28 33 37 18 35 36 -3 29 -16 -4 -30 -3 -30 2 0 15 15 22 45 19 25 -2 30 -7 30 -28z m176 9 c14 -14 18 -27 14 -42 -20 -67 -117 -60 -117 8 0 52 63 74 103 34z m167 4 c2 -9 -5 -11 -26 -7 -24 5 -32 2 -41 -14 -15 -29 8 -56 43 -50 17 4 25 1 23 -6 -2 -6 -19 -11 -37 -11 -27 0 -38 6 -49 26 -13 24 -13 29 3 53 14 22 24 27 48 24 17 -2 33 -9 36 -15z m92 -38 c0 -30 -4 -55 -10 -55 -5 0 -10 25 -10 55 0 30 5 55 10 55 6 0 10 -25 10 -55z m160 45 c0 -5 -13 -10 -30 -10 -39 0 -39 -19 0 -26 34 -7 30 -24 -6 -24 -13 0 -24 -4 -24 -10 0 -5 14 -10 30 -10 17 0 30 -4 30 -10 0 -5 -18 -10 -40 -10 l-40 0 0 55 0 55 40 0 c22 0 40 -4 40 -10z m111 3 c0 -5 2 -23 3 -41 1 -18 11 -39 22 -47 17 -13 15 -14 -28 -15 -27 0 -48 5 -48 10 0 6 7 10 15 10 11 0 15 12 15 45 0 25 5 45 10 45 6 0 10 -3 11 -7z m149 -8 c0 -9 9 -34 20 -55 17 -32 18 -40 6 -40 -8 0 -18 9 -21 20 -3 11 -9 20 -13 20 -4 0 -13 -9 -20 -20 -23 -37 -33 -21 -12 20 11 21 20 46 20 55 0 8 5 15 10 15 6 0 10 -7 10 -15z m-1231 -219 c16 -19 3 -45 -25 -52 -32 -8 -31 -28 1 -22 17 4 25 1 25 -9 0 -10 -10 -13 -32 -11 -44 4 -53 43 -14 58 37 14 34 34 -4 27 -16 -4 -30 -2 -30 2 0 22 62 27 79 7z m91 4 c0 -14 53 -13 68 2 21 21 20 4 -2 -50 -13 -33 -26 -51 -35 -50 -8 2 -25 27 -38 56 -18 42 -20 52 -8 52 8 0 15 -4 15 -10z m170 -10 c0 -13 7 -20 19 -20 30 0 34 -17 6 -24 -32 -8 -32 -26 -1 -26 14 0 28 -4 31 -10 4 -6 -10 -10 -34 -10 l-41 0 0 55 c0 30 5 55 10 55 6 0 10 -9 10 -20z m205 10 c-3 -5 -20 -10 -36 -10 -38 0 -34 -24 4 -28 33 -4 26 -22 -9 -22 -13 0 -24 -4 -24 -10 0 -5 14 -10 30 -10 17 0 30 -4 30 -10 0 -5 -18 -10 -40 -10 l-40 0 0 55 0 55 46 0 c27 0 43 -4 39 -10z m185 -10 c0 -11 5 -21 10 -21 6 -1 15 -2 20 -3 6 0 9 -5 8 -11 0 -5 -9 -9 -20 -7 -11 2 -18 -3 -18 -12 0 -10 9 -16 25 -16 14 0 25 -4 25 -10 0 -5 -18 -10 -39 -10 -32 0 -39 3 -36 18 2 9 4 34 4 55 1 37 21 54 21 17z m219 -11 c13 -24 13 -29 -2 -53 -13 -20 -26 -26 -52 -26 -38 0 -55 20 -55 64 0 51 83 62 109 15z m101 16 c0 -8 7 -15 15 -15 9 0 18 7 21 15 4 8 13 15 21 15 12 0 13 -3 4 -14 -9 -11 -10 -20 -1 -35 18 -35 -3 -61 -50 -61 l-40 0 0 55 c0 42 3 55 15 55 8 0 15 -7 15 -15z m324 -7 c9 -12 16 -29 16 -37 0 -46 -88 -71 -110 -32 -5 11 -10 29 -10 40 0 49 75 70 104 29z m164 10 c11 -14 15 -38 13 -82 -1 -43 -19 -20 -23 29 -2 33 -7 41 -25 43 -21 3 -23 -1 -23 -42 0 -34 -4 -46 -15 -46 -21 0 -20 68 2 92 19 21 56 24 71 6z m112 -3 c0 -8 7 -15 15 -15 9 0 18 7 21 15 4 8 13 15 21 15 10 0 11 -4 5 -17 -6 -11 -6 -25 1 -40 14 -31 -6 -53 -48 -53 -41 0 -44 8 -37 93 2 21 22 23 22 2z m505 -204 c3 -5 1 -12 -5 -16 -5 -3 -10 1 -10 9 0 18 6 21 15 7z m-2500 -11 c-3 -5 -20 -10 -36 -10 -38 0 -34 -24 4 -28 33 -4 26 -22 -9 -22 -13 0 -24 -4 -24 -10 0 -5 14 -10 30 -10 17 0 30 -4 30 -10 0 -5 -18 -10 -40 -10 l-40 0 0 55 0 55 46 0 c27 0 43 -4 39 -10z m152 -7 c3 -7 -3 -9 -16 -6 -26 7 -51 -13 -51 -38 0 -18 34 -34 57 -27 6 2 13 -1 15 -7 6 -17 -58 -17 -76 0 -21 21 -21 59 0 80 18 18 65 17 71 -2z m164 7 c22 -12 27 -68 7 -88 -17 -17 -73 -15 -88 3 -18 22 -15 66 6 82 21 16 48 17 75 3z m219 -10 c0 -11 5 -21 10 -21 6 -1 14 -2 19 -3 22 -3 20 -14 -4 -20 -32 -8 -33 -26 -1 -26 14 0 28 -4 31 -10 4 -6 -10 -10 -34 -10 l-41 0 0 55 c0 30 5 55 10 55 6 0 10 -9 10 -20z m140 5 c0 -21 30 -19 46 2 7 10 16 15 20 11 4 -4 2 -14 -4 -21 -8 -9 -8 -17 -1 -24 6 -6 9 -21 7 -34 -2 -20 -10 -24 -45 -27 l-43 -3 0 55 c0 31 5 56 10 56 6 0 10 -7 10 -15z m167 -43 c3 -41 0 -52 -12 -52 -12 0 -15 12 -15 56 0 73 23 69 27 -4z m158 48 c-3 -5 -20 -10 -36 -10 -38 0 -34 -24 4 -28 33 -4 26 -22 -9 -22 -13 0 -24 -4 -24 -10 0 -5 14 -10 30 -10 17 0 30 -4 30 -10 0 -5 -18 -10 -40 -10 l-40 0 0 55 0 55 46 0 c27 0 43 -4 39 -10z m95 -22 l0 -33 26 33 c38 48 50 42 46 -23 -4 -59 -22 -77 -22 -22 l-1 32 -28 -32 c-40 -47 -51 -43 -51 22 0 42 3 55 15 55 10 0 15 -10 15 -32z m231 22 c13 -7 19 -21 19 -45 0 -39 -20 -55 -69 -55 -31 0 -31 0 -31 55 0 55 0 55 31 55 17 0 39 -5 50 -10z m159 0 c0 -5 -11 -10 -25 -10 -23 0 -25 -4 -25 -45 0 -25 -4 -45 -10 -45 -5 0 -10 25 -10 55 l0 55 35 0 c19 0 35 -4 35 -10z m118 -16 c1 -14 9 -35 17 -47 17 -25 19 -37 5 -37 -5 0 -15 11 -23 26 l-13 25 -14 -25 c-7 -15 -17 -26 -22 -26 -11 0 -10 11 7 40 8 14 14 35 15 48 0 31 25 28 28 -4z m245 -11 l14 -37 12 37 c16 48 35 47 50 -4 7 -23 15 -48 18 -56 4 -10 1 -14 -7 -11 -8 2 -19 20 -25 39 l-12 34 -12 -37 c-16 -48 -38 -49 -47 -3 -7 40 -20 38 -29 -5 -4 -17 -13 -30 -20 -30 -14 0 -12 9 20 98 8 22 23 13 38 -25z m167 27 c0 -14 53 -13 68 2 22 22 22 1 1 -50 -25 -60 -43 -65 -63 -19 -24 58 -28 77 -17 77 6 0 11 -4 11 -10z m180 -5 c0 -8 7 -15 15 -15 9 0 18 7 21 15 4 8 13 15 21 15 12 0 13 -3 4 -14 -9 -10 -9 -20 0 -40 16 -34 -2 -56 -47 -56 l-34 0 0 55 c0 30 5 55 10 55 6 0 10 -7 10 -15z m220 5 c0 -5 -13 -10 -30 -10 -20 0 -30 -5 -30 -15 0 -10 10 -15 31 -15 17 0 28 -4 24 -10 -3 -5 -17 -10 -31 -10 -13 0 -24 -4 -24 -10 0 -5 14 -10 30 -10 17 0 30 -4 30 -10 0 -5 -18 -10 -40 -10 l-40 0 0 55 0 55 40 0 c22 0 40 -4 40 -10z m-1970 -40 c0 -5 -9 -10 -20 -10 -11 0 -20 5 -20 10 0 6 9 10 20 10 11 0 20 -4 20 -10z m1744 -589 c57 -36 73 -106 35 -155 -12 -15 -43 -38 -70 -51 -50 -26 -63 -45 -31 -45 9 0 29 6 44 14 26 14 28 13 48 -18 25 -42 25 -51 -2 -71 -62 -43 -166 -42 -217 1 -74 62 -57 148 36 193 79 39 67 70 -14 36 -19 -8 -37 -15 -38 -15 -2 0 -13 16 -25 35 -21 35 -22 37 -4 56 44 48 174 59 238 20z m-1780 -52 c9 -39 16 -78 16 -87 0 -36 16 5 30 76 l16 77 76 3 c66 2 77 0 82 -15 5 -16 76 -344 76 -350 0 -2 -31 -3 -69 -3 -78 0 -75 -4 -87 90 -10 85 -20 102 -28 52 -3 -24 -11 -65 -17 -93 l-11 -50 -61 3 -61 3 -17 83 c-9 45 -18 85 -21 88 -3 2 -11 -36 -17 -86 l-13 -90 -69 0 c-38 0 -69 3 -69 8 0 4 17 87 37 185 l37 177 77 0 77 0 16 -71z m486 46 c0 -22 4 -25 40 -25 36 0 40 3 40 25 0 25 1 25 79 25 l79 0 -33 -112 c-18 -62 -42 -146 -54 -186 l-22 -73 -91 3 -91 3 -47 160 c-26 88 -50 170 -54 183 -7 22 -6 22 73 22 80 0 81 0 81 -25z m432 -37 l3 -63 33 63 32 62 80 0 80 0 -26 -42 c-15 -24 -36 -55 -46 -71 -19 -27 -19 -27 1 -53 29 -37 35 -84 18 -127 -28 -67 -97 -91 -234 -80 l-83 6 0 183 0 184 70 0 69 0 3 -62z m566 10 l-3 -53 -77 -3 c-43 -2 -78 -7 -78 -12 0 -5 30 -10 67 -12 66 -3 67 -3 66 -30 -3 -86 4 -78 -69 -78 -47 0 -65 -3 -62 -12 3 -8 28 -12 74 -13 l69 0 3 -52 3 -53 -145 0 -146 0 0 185 0 185 151 0 150 0 -3 -52z m-785 -452 c91 -33 116 -87 117 -248 l0 -118 -70 0 -70 0 0 108 c0 59 -4 113 -9 120 -5 8 -21 12 -37 10 l-29 -3 -3 -117 -3 -118 -69 0 -70 0 0 109 c0 138 5 162 44 206 50 58 125 77 199 51z m431 -15 c89 -55 69 -163 -39 -208 -25 -10 -45 -24 -45 -30 0 -18 41 -16 67 2 20 14 22 13 42 -21 27 -46 27 -51 -11 -74 -125 -76 -293 17 -244 134 11 27 28 42 70 63 57 28 73 53 34 53 -13 -1 -34 -7 -48 -15 -35 -20 -36 -19 -60 20 -21 35 -22 37 -4 56 44 48 174 59 238 20z m-982 -43 l3 -63 43 -3 42 -3 0 65 0 66 70 0 70 0 0 -185 0 -185 -70 0 -70 0 0 66 0 65 -42 -3 -43 -3 -1 -60 -1 -60 -67 -3 -66 -3 0 186 0 185 65 0 64 0 3 -62z m1239 -10 l0 -73 37 73 36 72 79 0 79 0 -28 -47 c-15 -27 -40 -68 -55 -93 l-28 -45 50 -92 50 -93 -79 0 -79 0 -31 68 -30 67 -1 -67 -1 -68 -70 0 -70 0 0 185 0 185 70 0 70 0 1 -72z m-688 -450 l42 -23 3 -72 3 -71 -63 2 c-63 1 -63 1 -66 32 -3 29 -5 31 -30 25 -54 -15 -53 -103 2 -117 15 -3 38 0 55 9 l30 15 32 -50 33 -50 -25 -19 c-24 -18 -92 -39 -126 -39 -137 0 -232 150 -174 275 49 107 174 143 284 83z m832 -2 c121 -71 117 -256 -7 -326 -61 -35 -155 -35 -216 0 -146 83 -118 298 44 350 45 14 134 2 179 -24z m-1419 -1 c5 -20 12 -25 40 -25 28 0 35 5 40 25 6 24 10 25 80 25 41 0 74 -3 74 -7 0 -5 -23 -88 -51 -185 l-52 -178 -91 0 -91 0 -49 173 c-27 94 -51 178 -54 185 -3 9 15 12 72 12 72 0 76 -1 82 -25z m844 -37 l1 -63 32 60 32 60 83 3 82 3 -46 -71 -45 -70 20 -27 c29 -36 29 -120 0 -156 -32 -41 -106 -59 -211 -51 l-88 7 0 183 0 184 70 0 70 0 0 -62z"/>
</g>
<g id="layer105" fill="#fdfefd" stroke="none">
<path d="M0 2500 l0 -2500 2500 0 2500 0 0 2500 0 2500 -2500 0 -2500 0 0 -2500z m2045 1860 c0 -16 -8 -28 -22 -35 -30 -13 -29 -25 2 -25 14 0 25 -5 25 -11 0 -6 -16 -9 -37 -7 -30 2 -38 7 -38 23 0 12 11 25 28 33 37 18 35 36 -3 29 -16 -4 -30 -3 -30 2 0 15 15 22 45 19 25 -2 30 -7 30 -28z m176 9 c14 -14 18 -27 14 -42 -20 -67 -117 -60 -117 8 0 52 63 74 103 34z m167 4 c2 -9 -5 -11 -26 -7 -24 5 -32 2 -41 -14 -15 -29 8 -56 43 -50 17 4 25 1 23 -6 -2 -6 -19 -11 -37 -11 -27 0 -38 6 -49 26 -13 24 -13 29 3 53 14 22 24 27 48 24 17 -2 33 -9 36 -15z m92 -38 c0 -30 -4 -55 -10 -55 -5 0 -10 25 -10 55 0 30 5 55 10 55 6 0 10 -25 10 -55z m160 45 c0 -5 -13 -10 -30 -10 -39 0 -39 -19 0 -26 34 -7 30 -24 -6 -24 -13 0 -24 -4 -24 -10 0 -5 14 -10 30 -10 17 0 30 -4 30 -10 0 -5 -18 -10 -40 -10 l-40 0 0 55 0 55 40 0 c22 0 40 -4 40 -10z m111 3 c0 -5 2 -23 3 -41 1 -18 11 -39 22 -47 17 -13 15 -14 -28 -15 -27 0 -48 5 -48 10 0 6 7 10 15 10 11 0 15 12 15 45 0 25 5 45 10 45 6 0 10 -3 11 -7z m149 -8 c0 -9 9 -34 20 -55 17 -32 18 -40 6 -40 -8 0 -18 9 -21 20 -3 11 -9 20 -13 20 -4 0 -13 -9 -20 -20 -23 -37 -33 -21 -12 20 11 21 20 46 20 55 0 8 5 15 10 15 6 0 10 -7 10 -15z m-1231 -219 c16 -19 3 -45 -25 -52 -32 -8 -31 -28 1 -22 17 4 25 1 25 -9 0 -10 -10 -13 -32 -11 -44 4 -53 43 -14 58 37 14 34 34 -4 27 -16 -4 -30 -2 -30 2 0 22 62 27 79 7z m91 4 c0 -14 53 -13 68 2 21 21 20 4 -2 -50 -13 -33 -26 -51 -35 -50 -8 2 -25 27 -38 56 -18 42 -20 52 -8 52 8 0 15 -4 15 -10z m170 -10 c0 -13 7 -20 19 -20 30 0 34 -17 6 -24 -32 -8 -32 -26 -1 -26 14 0 28 -4 31 -10 4 -6 -10 -10 -34 -10 l-41 0 0 55 c0 30 5 55 10 55 6 0 10 -9 10 -20z m205 10 c-3 -5 -20 -10 -36 -10 -38 0 -34 -24 4 -28 33 -4 26 -22 -9 -22 -13 0 -24 -4 -24 -10 0 -5 14 -10 30 -10 17 0 30 -4 30 -10 0 -5 -18 -10 -40 -10 l-40 0 0 55 0 55 46 0 c27 0 43 -4 39 -10z m185 -10 c0 -11 5 -21 10 -21 6 -1 15 -2 20 -3 6 0 9 -5 8 -11 0 -5 -9 -9 -20 -7 -11 2 -18 -3 -18 -12 0 -10 9 -16 25 -16 14 0 25 -4 25 -10 0 -5 -18 -10 -39 -10 -32 0 -39 3 -36 18 2 9 4 34 4 55 1 37 21 54 21 17z m219 -11 c13 -24 13 -29 -2 -53 -13 -20 -26 -26 -52 -26 -38 0 -55 20 -55 64 0 51 83 62 109 15z m101 16 c0 -8 7 -15 15 -15 9 0 18 7 21 15 4 8 13 15 21 15 12 0 13 -3 4 -14 -9 -11 -10 -20 -1 -35 18 -35 -3 -61 -50 -61 l-40 0 0 55 c0 42 3 55 15 55 8 0 15 -7 15 -15z m324 -7 c9 -12 16 -29 16 -37 0 -46 -88 -71 -110 -32 -5 11 -10 29 -10 40 0 49 75 70 104 29z m164 10 c11 -14 15 -38 13 -82 -1 -43 -19 -20 -23 29 -2 33 -7 41 -25 43 -21 3 -23 -1 -23 -42 0 -34 -4 -46 -15 -46 -21 0 -20 68 2 92 19 21 56 24 71 6z m112 -3 c0 -8 7 -15 15 -15 9 0 18 7 21 15 4 8 13 15 21 15 10 0 11 -4 5 -17 -6 -11 -6 -25 1 -40 14 -31 -6 -53 -48 -53 -41 0 -44 8 -37 93 2 21 22 23 22 2z m505 -204 c3 -5 1 -12 -5 -16 -5 -3 -10 1 -10 9 0 18 6 21 15 7z m-2500 -11 c-3 -5 -20 -10 -36 -10 -38 0 -34 -24 4 -28 33 -4 26 -22 -9 -22 -13 0 -24 -4 -24 -10 0 -5 14 -10 30 -10 17 0 30 -4 30 -10 0 -5 -18 -10 -40 -10 l-40 0 0 55 0 55 46 0 c27 0 43 -4 39 -10z m152 -7 c3 -7 -3 -9 -16 -6 -26 7 -51 -13 -51 -38 0 -18 34 -34 57 -27 6 2 13 -1 15 -7 6 -17 -58 -17 -76 0 -21 21 -21 59 0 80 18 18 65 17 71 -2z m164 7 c22 -12 27 -68 7 -88 -17 -17 -73 -15 -88 3 -18 22 -15 66 6 82 21 16 48 17 75 3z m219 -10 c0 -11 5 -21 10 -21 6 -1 14 -2 19 -3 22 -3 20 -14 -4 -20 -32 -8 -33 -26 -1 -26 14 0 28 -4 31 -10 4 -6 -10 -10 -34 -10 l-41 0 0 55 c0 30 5 55 10 55 6 0 10 -9 10 -20z m140 5 c0 -21 30 -19 46 2 7 10 16 15 20 11 4 -4 2 -14 -4 -21 -8 -9 -8 -17 -1 -24 6 -6 9 -21 7 -34 -2 -20 -10 -24 -45 -27 l-43 -3 0 55 c0 31 5 56 10 56 6 0 10 -7 10 -15z m167 -43 c3 -41 0 -52 -12 -52 -12 0 -15 12 -15 56 0 73 23 69 27 -4z m158 48 c-3 -5 -20 -10 -36 -10 -38 0 -34 -24 4 -28 33 -4 26 -22 -9 -22 -13 0 -24 -4 -24 -10 0 -5 14 -10 30 -10 17 0 30 -4 30 -10 0 -5 -18 -10 -40 -10 l-40 0 0 55 0 55 46 0 c27 0 43 -4 39 -10z m95 -22 l0 -33 26 33 c38 48 50 42 46 -23 -4 -59 -22 -77 -22 -22 l-1 32 -28 -32 c-40 -47 -51 -43 -51 22 0 42 3 55 15 55 10 0 15 -10 15 -32z m231 22 c13 -7 19 -21 19 -45 0 -39 -20 -55 -69 -55 -31 0 -31 0 -31 55 0 55 0 55 31 55 17 0 39 -5 50 -10z m159 0 c0 -5 -11 -10 -25 -10 -23 0 -25 -4 -25 -45 0 -25 -4 -45 -10 -45 -5 0 -10 25 -10 55 l0 55 35 0 c19 0 35 -4 35 -10z m118 -16 c1 -14 9 -35 17 -47 17 -25 19 -37 5 -37 -5 0 -15 11 -23 26 l-13 25 -14 -25 c-7 -15 -17 -26 -22 -26 -11 0 -10 11 7 40 8 14 14 35 15 48 0 31 25 28 28 -4z m245 -11 l14 -37 12 37 c16 48 35 47 50 -4 7 -23 15 -48 18 -56 4 -10 1 -14 -7 -11 -8 2 -19 20 -25 39 l-12 34 -12 -37 c-16 -48 -38 -49 -47 -3 -7 40 -20 38 -29 -5 -4 -17 -13 -30 -20 -30 -14 0 -12 9 20 98 8 22 23 13 38 -25z m167 27 c0 -14 53 -13 68 2 22 22 22 1 1 -50 -25 -60 -43 -65 -63 -19 -24 58 -28 77 -17 77 6 0 11 -4 11 -10z m180 -5 c0 -8 7 -15 15 -15 9 0 18 7 21 15 4 8 13 15 21 15 12 0 13 -3 4 -14 -9 -10 -9 -20 0 -40 16 -34 -2 -56 -47 -56 l-34 0 0 55 c0 30 5 55 10 55 6 0 10 -7 10 -15z m220 5 c0 -5 -13 -10 -30 -10 -20 0 -30 -5 -30 -15 0 -10 10 -15 31 -15 17 0 28 -4 24 -10 -3 -5 -17 -10 -31 -10 -13 0 -24 -4 -24 -10 0 -5 14 -10 30 -10 17 0 30 -4 30 -10 0 -5 -18 -10 -40 -10 l-40 0 0 55 0 55 40 0 c22 0 40 -4 40 -10z m-1970 -40 c0 -5 -9 -10 -20 -10 -11 0 -20 5 -20 10 0 6 9 10 20 10 11 0 20 -4 20 -10z m1744 -589 c57 -36 73 -106 35 -155 -12 -15 -43 -38 -70 -51 -50 -26 -63 -45 -31 -45 9 0 29 6 44 14 26 14 28 13 48 -18 25 -42 25 -51 -2 -71 -62 -43 -166 -42 -217 1 -74 62 -57 148 36 193 79 39 67 70 -14 36 -19 -8 -37 -15 -38 -15 -2 0 -13 16 -25 35 -21 35 -22 37 -4 56 44 48 174 59 238 20z m-1780 -52 c9 -39 16 -78 16 -87 0 -36 16 5 30 76 l16 77 76 3 c66 2 77 0 82 -15 5 -16 76 -344 76 -350 0 -2 -31 -3 -69 -3 -78 0 -75 -4 -87 90 -10 85 -20 102 -28 52 -3 -24 -11 -65 -17 -93 l-11 -50 -61 3 -61 3 -17 83 c-9 45 -18 85 -21 88 -3 2 -11 -36 -17 -86 l-13 -90 -69 0 c-38 0 -69 3 -69 8 0 4 17 87 37 185 l37 177 77 0 77 0 16 -71z m486 46 c0 -22 4 -25 40 -25 36 0 40 3 40 25 0 25 1 25 79 25 l79 0 -33 -112 c-18 -62 -42 -146 -54 -186 l-22 -73 -91 3 -91 3 -47 160 c-26 88 -50 170 -54 183 -7 22 -6 22 73 22 80 0 81 0 81 -25z m432 -37 l3 -63 33 63 32 62 80 0 80 0 -26 -42 c-15 -24 -36 -55 -46 -71 -19 -27 -19 -27 1 -53 29 -37 35 -84 18 -127 -28 -67 -97 -91 -234 -80 l-83 6 0 183 0 184 70 0 69 0 3 -62z m566 10 l-3 -53 -77 -3 c-43 -2 -78 -7 -78 -12 0 -5 30 -10 67 -12 66 -3 67 -3 66 -30 -3 -86 4 -78 -69 -78 -47 0 -65 -3 -62 -12 3 -8 28 -12 74 -13 l69 0 3 -52 3 -53 -145 0 -146 0 0 185 0 185 151 0 150 0 -3 -52z m-785 -452 c91 -33 116 -87 117 -248 l0 -118 -70 0 -70 0 0 108 c0 59 -4 113 -9 120 -5 8 -21 12 -37 10 l-29 -3 -3 -117 -3 -118 -69 0 -70 0 0 109 c0 138 5 162 44 206 50 58 125 77 199 51z m431 -15 c89 -55 69 -163 -39 -208 -25 -10 -45 -24 -45 -30 0 -18 41 -16 67 2 20 14 22 13 42 -21 27 -46 27 -51 -11 -74 -125 -76 -293 17 -244 134 11 27 28 42 70 63 57 28 73 53 34 53 -13 -1 -34 -7 -48 -15 -35 -20 -36 -19 -60 20 -21 35 -22 37 -4 56 44 48 174 59 238 20z m-982 -43 l3 -63 43 -3 42 -3 0 65 0 66 70 0 70 0 0 -185 0 -185 -70 0 -70 0 0 66 0 65 -42 -3 -43 -3 -1 -60 -1 -60 -67 -3 -66 -3 0 186 0 185 65 0 64 0 3 -62z m1239 -10 l0 -73 37 73 36 72 79 0 79 0 -28 -47 c-15 -27 -40 -68 -55 -93 l-28 -45 50 -92 50 -93 -79 0 -79 0 -31 68 -30 67 -1 -67 -1 -68 -70 0 -70 0 0 185 0 185 70 0 70 0 1 -72z m-688 -450 l42 -23 3 -72 3 -71 -63 2 c-63 1 -63 1 -66 32 -3 29 -5 31 -30 25 -54 -15 -53 -103 2 -117 15 -3 38 0 55 9 l30 15 32 -50 33 -50 -25 -19 c-24 -18 -92 -39 -126 -39 -137 0 -232 150 -174 275 49 107 174 143 284 83z m832 -2 c121 -71 117 -256 -7 -326 -61 -35 -155 -35 -216 0 -146 83 -118 298 44 350 45 14 134 2 179 -24z m-1419 -1 c5 -20 12 -25 40 -25 28 0 35 5 40 25 6 24 10 25 80 25 41 0 74 -3 74 -7 0 -5 -23 -88 -51 -185 l-52 -178 -91 0 -91 0 -49 173 c-27 94 -51 178 -54 185 -3 9 15 12 72 12 72 0 76 -1 82 -25z m844 -37 l1 -63 32 60 32 60 83 3 82 3 -46 -71 -45 -70 20 -27 c29 -36 29 -120 0 -156 -32 -41 -106 -59 -211 -51 l-88 7 0 183 0 184 70 0 70 0 0 -62z m1105 -611 c40 -133 29 -238 -38 -344 -59 -93 -125 -117 -171 -63 -31 37 -40 83 -33 160 7 81 44 155 110 223 31 31 64 68 73 82 9 14 20 25 25 25 5 0 20 -37 34 -83z m-355 -315 c45 -22 95 -101 86 -137 -5 -21 -12 -25 -41 -25 -45 0 -84 16 -119 48 -28 26 -65 94 -66 120 0 19 99 15 140 -6z m536 -105 c17 -8 36 -23 43 -31 34 -41 -152 -74 -250 -45 l-38 12 16 28 c37 62 146 80 229 36z m-579 -92 c131 -31 138 -35 129 -69 -20 -81 -163 -152 -289 -144 -62 4 -102 19 -189 74 l-42 27 55 49 c105 95 157 105 336 63z m434 -50 c166 -75 184 -95 224 -250 14 -54 24 -99 23 -100 -12 -9 -196 19 -226 34 -59 31 -137 121 -184 216 -41 82 -43 94 -16 122 30 32 67 28 179 -22z m-217 -115 c32 -38 42 -105 29 -191 -10 -65 -27 -96 -92 -179 l-20 -25 -35 75 c-43 89 -47 159 -15 244 20 54 66 106 94 106 7 0 25 -14 39 -30z"/>
<path d="M2152 4361 c-8 -4 -12 -19 -10 -32 2 -19 9 -24 33 -24 27 0 30 3 30 30 0 22 -5 31 -20 33 -11 1 -26 -2 -33 -7z"/>
<path d="M1780 4116 c0 -9 5 -16 10 -16 6 0 10 4 10 9 0 6 -4 13 -10 16 -5 3 -10 -1 -10 -9z"/>
<path d="M2460 4135 c-6 -8 -10 -22 -8 -32 4 -25 48 -30 65 -8 26 37 -27 76 -57 40z"/>
<path d="M2640 4101 c0 -15 6 -21 21 -21 14 0 19 5 17 17 -5 26 -38 29 -38 4z"/>
<path d="M2889 4134 c-9 -11 -10 -20 -2 -32 15 -24 44 -27 59 -7 28 38 -27 75 -57 39z"/>
<path d="M3240 4100 c0 -16 5 -21 23 -18 12 2 22 10 22 18 0 8 -10 16 -22 18 -18 3 -23 -2 -23 -18z"/>
<path d="M1494 3916 c-12 -31 0 -51 31 -51 27 0 30 3 30 30 0 25 -4 30 -28 33 -17 2 -29 -2 -33 -12z"/>
<path d="M1920 3880 c0 -15 7 -20 26 -20 20 0 25 4 20 16 -3 9 -6 18 -6 20 0 2 -9 4 -20 4 -13 0 -20 -7 -20 -20z"/>
<path d="M2512 3898 c2 -28 7 -33 28 -33 21 0 25 5 25 30 0 25 -4 30 -28 33 -27 3 -28 1 -25 -30z"/>
<path d="M3285 3900 c-3 -5 -3 -15 1 -21 6 -11 23 6 24 24 0 10 -18 9 -25 -3z"/>
<path d="M3440 3880 c0 -13 7 -20 18 -20 26 0 34 11 21 27 -17 20 -39 16 -39 -7z"/>
<path d="M2168 3160 c5 -35 22 -30 22 6 0 13 -6 24 -13 24 -9 0 -12 -10 -9 -30z"/>
<path d="M2570 3085 c0 -22 4 -26 23 -23 14 2 22 10 22 23 0 13 -8 21 -22 23 -19 3 -23 -1 -23 -23z"/>
<path d="M3048 2199 c-68 -39 -19 -147 50 -110 25 14 36 55 21 84 -20 37 -40 45 -71 26z"/>
<path d="M1794 2174 c3 -9 6 -25 7 -37 0 -21 1 -21 9 -2 14 32 11 55 -6 55 -11 0 -14 -5 -10 -16z"/>
<path d="M2610 2085 c0 -18 5 -25 19 -25 23 0 34 23 18 39 -19 19 -37 12 -37 -14z"/>
</g>


</svg>